<mxfile host="app.diagrams.net" modified="2023-10-04T19:08:13.516Z" agent="Mozilla/5.0 (Windows NT 10.0; Win64; x64; rv:109.0) Gecko/20100101 Firefox/118.0" version="21.7.4" etag="LMrb4J_qWhfQY-mNM9K7" type="github">
  <diagram name="Страница — 1" id="c_FFksj4TPEEmuwCLG_t">
    <mxGraphModel>
      <root>
        <mxCell id="0" />
        <mxCell id="1" parent="0" />
      </root>
    </mxGraphModel>
  </diagram>
</mxfile>
